<?xml version="1.0" encoding="UTF-8" standalone="no"?>
<!-- Created with Inkscape (http://www.inkscape.org/) -->

<svg
   xmlns:dc="http://purl.org/dc/elements/1.1/"
   xmlns:cc="http://creativecommons.org/ns#"
   xmlns:rdf="http://www.w3.org/1999/02/22-rdf-syntax-ns#"
   xmlns:svg="http://www.w3.org/2000/svg"
   xmlns="http://www.w3.org/2000/svg"
   xmlns:xlink="http://www.w3.org/1999/xlink"
   xmlns:sodipodi="http://sodipodi.sourceforge.net/DTD/sodipodi-0.dtd"
   xmlns:inkscape="http://www.inkscape.org/namespaces/inkscape"
   width="205.96141mm"
   height="200.43694mm"
   viewBox="0 0 205.96141 200.43694"
   version="1.1"
   id="svg8"
   inkscape:version="0.92.4 (f8dce91, 2019-08-02)"
   sodipodi:docname="kolony.svg"
   inkscape:export-filename="kolony.png"
   inkscape:export-xdpi="299"
   inkscape:export-ydpi="299">
  <defs
     id="defs2" />
  <sodipodi:namedview
     id="base"
     pagecolor="#ffffff"
     bordercolor="#666666"
     borderopacity="1.0"
     inkscape:pageopacity="0.0"
     inkscape:pageshadow="2"
     inkscape:zoom="0.68921901"
     inkscape:cx="261.38982"
     inkscape:cy="323.00921"
     inkscape:document-units="mm"
     inkscape:current-layer="layer1"
     showgrid="false"
     inkscape:window-width="1850"
     inkscape:window-height="1016"
     inkscape:window-x="70"
     inkscape:window-y="27"
     inkscape:window-maximized="1"
     fit-margin-left="10"
     fit-margin-top="10"
     fit-margin-right="10"
     fit-margin-bottom="10" />
  <metadata
     id="metadata5">
    <rdf:RDF>
      <cc:Work
         rdf:about="">
        <dc:format>image/svg+xml</dc:format>
        <dc:type
           rdf:resource="http://purl.org/dc/dcmitype/StillImage" />
        <dc:title></dc:title>
      </cc:Work>
    </rdf:RDF>
  </metadata>
  <g
     inkscape:label="Layer 1"
     inkscape:groupmode="layer"
     id="layer1"
     transform="translate(-3.6085826,-28.204158)">
    <g
       transform="matrix(0.26458333,0,0,0.26458333,9.2890195,-10.678244)"
       id="layer1-6"
       inkscape:label="Layer 1">
      <path
         style="fill:#326ce5;fill-opacity:1;stroke:#ffffff;stroke-width:0;stroke-miterlimit:4;stroke-dasharray:none;stroke-opacity:1"
         d="m 365.3125,184.8125 a 46.724621,46.342246 0 0 0 -17.90625,4.53125 l -244.34375,116.75 a 46.724621,46.342246 0 0 0 -25.28125,31.4375 L 17.5,599.78125 A 46.724621,46.342246 0 0 0 23.84375,635.3125 46.724621,46.342246 0 0 0 26.5,639 l 169.125,210.28125 a 46.724621,46.342246 0 0 0 36.53125,17.4375 L 503.375,866.65625 A 46.724621,46.342246 0 0 0 539.90625,849.25 L 708.96875,638.9375 A 46.724621,46.342246 0 0 0 718,599.71875 l -60.375,-262.25 a 46.724621,46.342246 0 0 0 -25.28125,-31.4375 l -244.375,-116.6875 A 46.724621,46.342246 0 0 0 365.3125,184.8125 Z"
         id="path3055"
         inkscape:connector-curvature="0"
         inkscape:export-filename="kappliance.png"
         inkscape:export-xdpi="299.94611"
         inkscape:export-ydpi="299.94611" />
    </g>
    <path
       id="path4724-5"
       d="m 97.16134,62.389838 c -0.151476,0.02252 -3.74133,0.57617 -6.65149,2.333852 -2.797077,1.690198 -4.10306,1.878767 -5.194892,1.926072 -0.05577,0.0032 -0.107246,0.02477 -0.15349,0.05304 -0.22496,-0.130352 -0.465762,-0.243075 -0.723675,-0.340465 2.757109,-5.288153 6.38402,-8.201277 6.421374,-8.230405 0.148254,-0.117824 0.172968,-0.33239 0.05563,-0.480703 -0.116867,-0.148375 -0.332455,-0.173452 -0.480769,-0.0561 -0.155462,0.122639 -3.830236,3.066698 -6.666215,8.565999 -0.141374,-0.03297 -0.279222,-0.07273 -0.427021,-0.09462 -2.105848,-0.314677 -3.991094,0.624747 -4.21082,2.096973 -0.06403,0.429509 0.0245,0.85688 0.228542,1.255041 -0.864352,-0.511228 -2.201151,-0.644499 -3.613108,-0.30485 -0.174363,-0.3643 -0.35379,-0.745541 -0.542975,-1.149967 -0.284295,-0.608777 -0.423307,-0.905743 -0.487662,-1.013367 -0.05033,-0.08546 -0.08978,-0.169855 -0.125079,-0.244518 -0.09812,-0.208851 -0.221583,-0.467738 -0.513831,-0.469468 -0.316582,0.0029 -0.51653,0.338103 -0.750517,0.821758 -0.350081,0.720977 -0.410575,2.344534 -0.405588,3.48419 -0.306263,0.274479 -0.558355,0.56801 -0.74626,0.871029 l -2.915846,-2.622044 -0.08672,-0.05646 c -0.36417,-0.165542 -0.667904,-0.173156 -0.901404,-0.02651 -0.235778,0.147902 -0.300482,0.397791 -0.318018,0.525995 l -1.820403,4.420952 C 64.96411,72.98635 64.23721,72.662899 63.96946,72.696652 c -0.190358,0.024 -0.586939,0.07399 -6.854204,10.266675 -0.0099,0.02363 -1.015552,2.352918 -4.447042,2.458334 -0.189352,0.01265 -0.336307,0.163996 -0.330996,0.353292 0.0062,0.189178 0.164594,0.337207 0.353829,0.331415 0.260689,-0.0084 0.509165,-0.02855 0.745673,-0.05835 3.27215,-0.412515 4.26588,-2.713852 4.286247,-2.773069 2.152925,-3.499371 5.689383,-9.109442 6.387132,-9.877181 0.283808,0.08972 0.980464,0.456059 1.756291,0.900311 l -0.505561,1.226968 c -1.628164,1.843656 -2.656583,4.303686 -2.474619,6.010463 l -0.256918,0.623284 c -0.0026,0.01109 -0.247825,1.148577 -2.187189,0.973095 -0.187994,-0.01537 -0.354377,0.121343 -0.372149,0.309642 -0.01728,0.18824 0.121891,0.354796 0.310126,0.372091 0.359172,0.03286 0.675328,0.0267 0.953656,-0.0084 1.232043,-0.155318 1.705443,-0.874265 1.869607,-1.237782 0.07742,0.129906 0.164084,0.25181 0.269361,0.358675 1.489504,1.511168 5.294519,-0.0011 7.768572,-2.43659 1.1772,-1.159767 1.968886,-2.491674 2.320702,-3.733443 0.697257,2.137489 1.640158,5.502949 2.453431,8.696253 l 0.05065,0.111308 c 0.285647,0.410334 1.261412,1.766517 1.813197,1.983123 0.05605,0.02286 0.11397,0.02861 0.168773,0.0217 0.119216,-0.01503 0.228931,-0.09381 0.275198,-0.214892 0.06963,-0.175797 -0.01789,-0.374258 -0.193077,-0.443002 -0.235315,-0.09242 -0.939019,-0.936932 -1.467276,-1.687333 -0.64062,-2.513319 -1.963621,-7.530311 -2.897444,-9.921203 -0.0048,-0.25138 -0.03513,-0.491736 -0.08837,-0.720889 0.435327,0.10627 0.924312,0.150106 1.442855,0.126246 0.08239,0.02633 0.168407,0.01881 0.245414,-0.01728 0.413666,-0.03457 0.841889,-0.112482 1.276795,-0.234217 1.06767,1.666904 2.944887,4.63037 3.34853,5.47315 0.0536,0.111421 0.09999,0.215942 0.144626,0.314327 0.46859,1.051912 0.867373,1.383525 2.918539,1.124934 0.378312,-0.04769 0.814184,-0.115331 1.31775,-0.203723 0.186446,-0.03181 0.31066,-0.208624 0.279334,-0.395127 -0.03324,-0.186266 -0.225526,-0.328546 -0.395965,-0.278246 -3.02324,0.52373 -3.125335,0.302678 -3.494053,-0.526439 -0.04572,-0.103134 -0.09626,-0.213479 -0.151673,-0.331507 -0.412435,-0.858276 -2.207604,-3.69779 -3.29557,-5.39778 0.122907,-0.04773 0.241906,-0.09936 0.360659,-0.152906 0.267546,0.34425 0.489143,0.537041 0.679166,0.595615 0.07659,0.02257 0.153763,0.03042 0.227309,0.02114 0.06825,-0.0086 0.133258,-0.03144 0.191334,-0.06661 0.245279,-0.146175 0.382936,-0.220176 0.45688,-0.257334 0.104386,0.0029 0.206626,-0.03826 0.276852,-0.124267 l 0.190846,-0.24479 -0.188269,-0.218974 c -0.211379,-0.247317 -0.484304,-0.103516 -1.004586,0.208687 -0.06387,-0.04175 -0.140991,-0.118962 -0.229206,-0.226018 0.55273,-0.322156 1.016085,-0.702392 1.36253,-1.111345 1.332659,-0.372134 2.421038,-0.621178 2.68954,-0.56761 0.09323,0.01902 0.160192,0.03498 0.208645,0.04743 -0.0083,0.09333 -0.0039,0.217313 0.04482,0.363535 0.08313,0.248835 3.007897,6.203193 4.475723,6.81415 0.518793,0.214419 0.907119,0.25776 1.237242,0.215165 0.296596,-0.03739 0.547566,-0.142285 0.804969,-0.250426 0.254145,-0.106759 0.517551,-0.217611 0.872587,-0.287274 0.186738,-0.03721 0.306139,-0.217331 0.269103,-0.402627 -0.0377,-0.186679 -0.241123,-0.305093 -0.402683,-0.269586 -0.424431,0.08476 -0.731803,0.214834 -1.003617,0.3287 -0.494133,0.205864 -0.793041,0.333401 -1.514502,0.03368 -1.05791,-0.43897 -3.884215,-5.798249 -4.090376,-6.399292 -0.01879,-0.05623 -0.0141,-0.08856 -0.0036,-0.148492 0.08945,-0.545523 -0.384929,-0.640035 -0.765599,-0.715598 -0.350131,-0.06965 -1.275887,0.121296 -2.291109,0.385041 0.183682,-0.445082 0.226878,-0.89639 0.09308,-1.318541 -0.0033,-0.01032 -0.0088,-0.01942 -0.01198,-0.02925 0.598085,0.463733 1.393399,0.806887 2.2948,0.941808 0.150799,0.02252 1.248698,0.02718 2.693934,-0.331311 1.067803,-0.265004 1.146924,-1.318572 2.572843,-1.411901 L 87.067185,69.38481 87.983797,69.125193 87.13409,68.772781 c -0.565063,-0.438108 -0.279382,-0.337386 -0.60665,-0.721476 -0.139285,-0.272026 -0.333907,-0.529754 -0.575495,-0.764953 0.04579,-0.0048 0.08683,-0.0046 0.13394,-0.01056 1.059471,-0.133567 2.425988,-0.543174 4.775986,-1.964089 2.791184,-1.686523 6.362768,-2.237873 6.399664,-2.243503 0.186868,-0.02845 0.315347,-0.202374 0.286909,-0.389247 -0.02658,-0.187587 -0.209322,-0.292984 -0.38708,-0.289129 z m -23.220126,4.967139 c 0.04006,-0.08124 0.07441,-0.14954 0.104399,-0.206068 0.02524,0.04908 0.05263,0.09982 0.08237,0.149797 0.04906,0.08318 0.237051,0.485806 0.455027,0.952044 0.174549,0.373552 0.338434,0.720614 0.498042,1.056982 -0.542949,0.186629 -1.038069,0.427294 -1.470584,0.707435 0.0159,-1.035831 0.09621,-2.176958 0.330737,-2.660195 z m -5.337445,2.092984 0.02484,-0.159404 c 0.0048,-5.29e-4 0.06327,-0.01334 0.213209,0.04882 l 3.030255,2.723854 c -0.06062,0.201017 -0.08798,0.402251 -0.08494,0.600625 -1.366041,-0.338106 -3.206764,0.191352 -4.886389,1.444736 -0.05917,-0.03551 -0.117263,-0.07018 -0.174807,-0.104441 z"
       inkscape:connector-curvature="0"
       style="fill:#ffffff;fill-opacity:1;stroke-width:0.48450887"
       inkscape:transform-center-x="30.301622"
       inkscape:transform-center-y="-58.919796"
       inkscape:tile-cx="106.63426"
       inkscape:tile-cy="131.54374"
       inkscape:tile-w="37.673792"
       inkscape:tile-h="25.037911"
       inkscape:tile-x0="62.549812"
       inkscape:tile-y0="69.932315" />
    <g
       id="g4922">
      <use
         height="100%"
         width="100%"
         inkscape:transform-center-y="57.184965"
         inkscape:transform-center-x="-63.81723"
         id="use4847"
         xlink:href="#path4724-5"
         inkscape:tiled-clone-of="#path4724-5"
         y="0"
         x="0" />
      <use
         height="100%"
         width="100%"
         inkscape:transform-center-y="58.848714"
         inkscape:transform-center-x="-119.95843"
         id="use4849"
         transform="rotate(51.4286,105.24635,131.46601)"
         xlink:href="#path4724-5"
         inkscape:tiled-clone-of="#path4724-5"
         y="0"
         x="0" />
      <use
         height="100%"
         width="100%"
         inkscape:transform-center-y="99.295358"
         inkscape:transform-center-x="-156.21672"
         id="use4851"
         transform="rotate(102.8572,105.24635,131.46601)"
         xlink:href="#path4724-5"
         inkscape:tiled-clone-of="#path4724-5"
         y="0"
         x="0" />
      <use
         height="100%"
         width="100%"
         inkscape:transform-center-y="155.27842"
         inkscape:transform-center-x="-146.08141"
         id="use4853"
         transform="rotate(154.2858,105.24635,131.46601)"
         xlink:href="#path4724-5"
         inkscape:tiled-clone-of="#path4724-5"
         y="0"
         x="0" />
      <use
         height="100%"
         width="100%"
         inkscape:transform-center-y="178.26681"
         inkscape:transform-center-x="-96.593457"
         id="use4855"
         transform="rotate(-154.2856,105.24635,131.46601)"
         xlink:href="#path4724-5"
         inkscape:tiled-clone-of="#path4724-5"
         y="0"
         x="0" />
      <use
         height="100%"
         width="100%"
         inkscape:transform-center-y="158.37882"
         inkscape:transform-center-x="-43.435148"
         id="use4857"
         transform="rotate(-102.857,105.24636,131.46601)"
         xlink:href="#path4724-5"
         inkscape:tiled-clone-of="#path4724-5"
         y="0"
         x="0" />
      <use
         height="100%"
         width="100%"
         inkscape:transform-center-y="104.12141"
         inkscape:transform-center-x="-32.801401"
         id="use4859"
         transform="rotate(-51.428399,105.24635,131.46601)"
         xlink:href="#path4724-5"
         inkscape:tiled-clone-of="#path4724-5"
         y="0"
         x="0" />
    </g>
    <text
       id="text4892"
       y="138.46561"
       x="67.936508"
       style="font-style:normal;font-variant:normal;font-weight:normal;font-stretch:normal;font-size:25.43104362px;line-height:1.25;font-family:Ubuntu;-inkscape-font-specification:'Ubuntu, Normal';font-variant-ligatures:normal;font-variant-caps:normal;font-variant-numeric:normal;font-feature-settings:normal;text-align:start;letter-spacing:0px;word-spacing:0px;writing-mode:lr-tb;text-anchor:start;fill:#ffffff;fill-opacity:1;stroke:none;stroke-width:0.63577306"
       xml:space="preserve"><tspan
         y="138.46561"
         x="67.936508"
         id="tspan4890"
         sodipodi:role="line"
         style="font-style:normal;font-variant:normal;font-weight:normal;font-stretch:normal;font-size:25.43104362px;font-family:Ubuntu;-inkscape-font-specification:'Ubuntu, Normal';font-variant-ligatures:normal;font-variant-caps:normal;font-variant-numeric:normal;font-feature-settings:normal;text-align:start;writing-mode:lr-tb;text-anchor:start;fill:#ffffff;fill-opacity:1;stroke-width:0.63577306">kolony</tspan></text>
  </g>
</svg>
